<?xml version="1.0" encoding="utf-8"?>
<!-- Generator: Adobe Illustrator 24.1.1, SVG Export Plug-In . SVG Version: 6.00 Build 0)  -->
<svg version="1.1" id="Layer_1" xmlns="http://www.w3.org/2000/svg" xmlns:xlink="http://www.w3.org/1999/xlink" x="0px" y="0px"
	 viewBox="0 0 960 560" style="enable-background:new 0 0 960 560;" xml:space="preserve">
<style type="text/css">
	.st0{fill:#FFFFFF;}
</style>
<g>
	<g>
		<path class="st0" d="M216,344c0-109.64,0-219.33,0-329c110.6,0,221.18,0,331.76,0c0,109.65,0,219.28,0,329
			C437.17,344,326.58,344,216,344z M422.23,213.19c4.75-3.61,9.17-6.78,13.37-10.22c11.25-9.23,21.27-19.57,28.13-32.61
			c4.21-8,6.65-16.42,5.87-25.57c-0.04-0.47,0.09-0.96,0.16-1.65c3.21,1.05,5.76,2.73,8.11,4.75c6.83,5.87,11.29,13.45,15.14,21.41
			c6.61,13.67,11.21,28.07,14.6,42.82c2.8,12.16,5.05,24.44,7.52,36.67c0.42,2.08,0.71,4.2,1.14,6.82c0.74-0.99,1.23-1.51,1.57-2.11
			c2.13-3.85,4.43-7.62,6.3-11.58c10.02-21.19,14.74-43.6,15.08-66.98c0.18-12.05-0.02-24.13-3.21-35.84
			c-7.4-27.21-22.03-50.12-42.48-69.33c-17.08-16.04-37.02-27.11-59.76-32.94c-17.49-4.49-35.16-6.19-53.12-2.93
			c-14.55,2.65-28.32,7.35-41.16,14.75c-0.86,0.5-2.13,0.66-3.14,0.49c-19.84-3.28-39.56-3.25-58.97,2.53
			c-17.76,5.29-32.15,15.28-42.04,31.23c-1.01,1.62-1.88,3.32-3.03,5.37c1.12-0.21,1.7-0.28,2.26-0.42
			c4.89-1.27,9.75-2.71,14.69-3.78c4.64-1.01,9.38-1.33,14.1-0.37c1.85,0.38,3.66,0.92,4.83,2.91c-1.05,0.45-1.97,0.77-2.82,1.23
			c-3.85,2.11-7.95,3.89-11.48,6.45c-17.57,12.74-25.66,30.78-28,51.76c-1.32,11.89-0.53,23.74,1.39,35.56
			c2.07,12.76,5.44,25.16,9.6,37.36c4.86,14.26,10.8,28.08,17.37,41.63c0.3,0.61,0.67,1.19,1,1.78c0.16-3.52-0.11-6.9-0.27-10.28
			c-0.69-15.33-0.4-30.62,1.87-45.85c1.35-9.07,3.32-17.96,6.75-26.48c1.18-2.93,2.65-5.74,3.99-8.6c0.17,0.03,0.35,0.06,0.52,0.09
			c2.73,16.55,13.39,26.44,27.62,33.62c1.08-4.43,1.86-8.57,3.11-12.56c4.4-14.05,11.48-26.47,22.69-36.27
			c8.42-7.37,18.18-12.05,28.9-15.14c10.44-3.01,20.12-1.96,29.28,3.87c8.66,5.51,15.13,13.16,20.74,21.58
			c8.25,12.37,14.36,25.81,19.3,39.8C420.53,208.31,421.28,210.46,422.23,213.19z M374.69,256.84c-0.88-2.34-1.64-4.57-2.54-6.75
			c-11.03-26.74-41.68-40.91-69.12-31.75c-17.38,5.8-29.42,17.41-35.76,34.66c-4.92,13.4-4.73,26.94,0.79,40.04
			c8.2,19.47,23.03,31.19,43.86,34.64c14.46,2.39,28.11-0.76,40.11-9.22c16.45-11.59,24.72-27.63,24.61-47.89
			c-0.01-1.21,0.46-2.61,1.15-3.61c2.27-3.29,6.76-4.48,10.97-3.13c3.71,1.19,5.48,3.65,5.43,8.12c-0.08,7.69,1.48,15.01,4.48,22.04
			c11.76,27.58,43,41.19,71.1,30.98c26.92-9.78,42.26-38.34,35.54-66.15c-7.63-31.56-40.11-50.33-71.1-40.77
			c-16.52,5.1-28.39,15.79-35.36,31.72c-1.07,2.44-1.91,4.97-2.86,7.45C385.28,252.94,385.28,252.94,374.69,256.84z M368.51,215.6
			c-6.24-6.81-12.54-13.7-19.08-20.83c6.81-3.03,13.3-5.91,19.79-8.8c-0.12-0.42-0.12-0.65-0.24-0.77
			c-8.06-9-16.12-17.99-24.23-26.94c-0.28-0.31-1.3-0.38-1.64-0.13c-1.43,1.11-2.73,2.39-4.19,3.72
			c6.49,7.22,12.82,14.26,19.37,21.54c-6.88,3.05-13.43,5.95-20.16,8.93c0.6,0.75,0.93,1.23,1.32,1.65
			c6.83,7.44,13.67,14.89,20.52,22.32c4.14,4.5,4.15,4.49,8.31-0.12C368.36,216.08,368.38,215.93,368.51,215.6z"/>
		<path d="M425.23,213.19c-0.96-2.72-1.71-4.87-2.47-7.02c-4.94-13.99-11.05-27.42-19.3-39.8c-5.61-8.42-12.08-16.07-20.74-21.58
			c-9.15-5.83-18.84-6.89-29.28-3.87c-10.72,3.09-20.48,7.77-28.9,15.14c-11.21,9.81-18.29,22.23-22.69,36.27
			c-1.25,3.99-2.03,8.13-3.11,12.56c-14.23-7.18-24.89-17.07-27.62-33.62c-0.17-0.03-0.35-0.06-0.52-0.09
			c-1.34,2.86-2.81,5.67-3.99,8.6c-3.43,8.52-5.4,17.41-6.75,26.48c-2.27,15.22-2.56,30.51-1.87,45.85
			c0.15,3.38,0.42,6.76,0.27,10.28c-0.33-0.59-0.7-1.17-1-1.78c-6.57-13.55-12.51-27.38-17.37-41.63c-4.16-12.2-7.53-24.6-9.6-37.36
			c-1.92-11.82-2.71-23.67-1.39-35.56c2.34-20.98,10.42-39.03,28-51.76c3.53-2.56,7.63-4.34,11.48-6.45
			c0.85-0.46,1.77-0.78,2.82-1.23c-1.17-1.99-2.98-2.53-4.83-2.91c-4.72-0.96-9.46-0.64-14.1,0.37c-4.94,1.07-9.79,2.51-14.69,3.78
			c-0.56,0.14-1.13,0.21-2.26,0.42c1.15-2.04,2.02-3.75,3.03-5.37c9.9-15.95,24.29-25.94,42.04-31.23
			c19.41-5.78,39.13-5.81,58.97-2.53c1,0.17,2.27,0.01,3.14-0.49c12.84-7.4,26.61-12.1,41.16-14.75
			c17.96-3.27,35.62-1.56,53.12,2.93c22.74,5.83,42.68,16.89,59.76,32.94c20.45,19.21,35.08,42.12,42.48,69.33
			c3.18,11.71,3.38,23.79,3.21,35.84c-0.34,23.37-5.07,45.79-15.08,66.98c-1.88,3.97-4.17,7.74-6.3,11.58
			c-0.33,0.6-0.82,1.12-1.57,2.11c-0.43-2.62-0.72-4.74-1.14-6.82c-2.47-12.23-4.72-24.51-7.52-36.67
			c-3.39-14.75-8-29.15-14.6-42.82c-3.85-7.96-8.31-15.54-15.14-21.41c-2.35-2.02-4.9-3.7-8.11-4.75c-0.07,0.69-0.2,1.18-0.16,1.65
			c0.78,9.15-1.66,17.57-5.87,25.57c-6.86,13.03-16.88,23.37-28.13,32.61C434.41,206.41,429.98,209.57,425.23,213.19z"/>
		<path d="M374.69,256.84c10.6-3.89,10.6-3.89,21.32,0.4c0.95-2.49,1.8-5.02,2.86-7.45c6.97-15.93,18.83-26.63,35.36-31.72
			c30.99-9.56,63.48,9.22,71.1,40.77c6.72,27.81-8.62,56.37-35.54,66.15c-28.11,10.21-59.35-3.39-71.1-30.98
			c-3-7.04-4.56-14.36-4.48-22.04c0.05-4.47-1.72-6.93-5.43-8.12c-4.21-1.35-8.71-0.17-10.97,3.13c-0.69,1-1.16,2.4-1.15,3.61
			c0.1,20.25-8.16,36.3-24.61,47.89c-12,8.46-25.65,11.61-40.11,9.22c-20.83-3.44-35.66-15.17-43.86-34.64
			c-5.51-13.1-5.71-26.64-0.79-40.04c6.33-17.25,18.38-28.86,35.76-34.66c27.45-9.16,58.1,5,69.12,31.75
			C373.04,252.26,373.81,254.5,374.69,256.84z M320.37,225.21c-25.73-0.08-46.56,20.66-46.91,46.18
			c-0.36,25.47,20.22,46.74,45.55,47.42c26.68,0.72,48.13-21.15,48.12-46.64C367.12,246.25,346.36,225.28,320.37,225.21z
			 M450.52,225.21c-25.85,0-46.79,20.87-46.83,46.69c-0.03,25.8,20.92,46.86,46.65,46.88c26,0.02,46.88-20.82,47.02-46.72
			C497.5,246.28,476.1,224.91,450.52,225.21z"/>
		<path d="M368.51,215.6c-0.13,0.34-0.15,0.48-0.23,0.57c-4.16,4.61-4.17,4.62-8.31,0.12c-6.85-7.43-13.68-14.88-20.52-22.32
			c-0.39-0.43-0.73-0.9-1.32-1.65c6.73-2.98,13.28-5.88,20.16-8.93c-6.55-7.28-12.88-14.33-19.37-21.54
			c1.47-1.33,2.77-2.61,4.19-3.72c0.33-0.26,1.36-0.18,1.64,0.13c8.11,8.95,16.17,17.94,24.23,26.94c0.11,0.13,0.12,0.36,0.24,0.77
			c-6.49,2.88-12.98,5.77-19.79,8.8C355.97,201.9,362.27,208.78,368.51,215.6z"/>
		<path class="st0" d="M320.37,225.21c25.99,0.08,46.75,21.04,46.76,46.95c0.01,25.49-21.44,47.36-48.12,46.64
			c-25.33-0.68-45.9-21.95-45.55-47.42C273.82,245.86,294.65,225.13,320.37,225.21z"/>
		<path class="st0" d="M450.52,225.21c25.57-0.29,46.98,21.07,46.84,46.85c-0.13,25.9-21.02,46.74-47.02,46.72
			c-25.73-0.02-46.69-21.08-46.65-46.88C403.73,246.08,424.67,225.2,450.52,225.21z"/>
	</g>
	<rect x="300.13" y="370.67" transform="matrix(0.999 -0.0458 0.0458 0.999 -19.4549 14.7932)" width="26.14" height="122.82"/>
	<rect x="414.66" y="377.25" transform="matrix(0.9973 -0.0739 0.0739 0.9973 -31.1183 32.6082)" width="20.86" height="119.12"/>
	<ellipse transform="matrix(0.9973 -0.0739 0.0739 0.9973 -26.735 34.5376)" cx="453.35" cy="378.55" rx="43.5" ry="30.02"/>
	<rect x="346.56" y="371.51" transform="matrix(0.999 -0.0458 0.0458 0.999 -19.4444 16.9199)" width="26.14" height="122.82"/>
	<rect x="291.47" y="366.18" width="37.66" height="6.37"/>
	<rect x="336.95" y="366.18" width="40.55" height="6.37"/>
	<rect x="342.75" y="493.63" width="40.55" height="6.37"/>
	<rect x="296.4" y="492.48" width="40.55" height="6.37"/>
	<g>
		<rect x="279.36" y="423.04" transform="matrix(0.9998 0.021 -0.021 0.9998 9.0671 -7.0026)" width="116.1" height="8.95"/>
		<g>
			<polygon points="279.59,439.64 276.29,439.63 276.91,413.7 280.21,413.72 			"/>
			<polygon points="397.58,440.61 394.28,440.59 394.9,414.67 398.19,414.68 			"/>
		</g>
	</g>
	<rect x="413.14" y="492.19" width="34.18" height="6.95"/>
</g>
</svg>
