<?xml version="1.0" encoding="utf-8"?>
<!-- Generator: Adobe Illustrator 24.1.1, SVG Export Plug-In . SVG Version: 6.00 Build 0)  -->
<svg version="1.1" id="Layer_1" xmlns="http://www.w3.org/2000/svg" xmlns:xlink="http://www.w3.org/1999/xlink" x="0px" y="0px"
	 viewBox="0 0 462 542" style="enable-background:new 0 0 462 542;" xml:space="preserve">
<style type="text/css">
	.st0{fill:#FFFFFF;stroke:#000000;stroke-miterlimit:10;}
	.st1{fill:#FFFFFF;}
	.st2{fill:#FFFFFF;stroke:#FFFFFF;stroke-miterlimit:10;}
	.st3{fill:none;stroke:#FFFFFF;stroke-width:5;stroke-miterlimit:10;}
	.st4{fill:#FFFFFF;stroke:#FFFFFF;stroke-width:5;stroke-miterlimit:10;}
</style>
<g>
	<path class="st0" d="M377.02,125.1c-0.22-0.81-0.45-1.61-0.68-2.41c-0.08-0.28-0.16-0.56-0.25-0.84c-0.15-0.52-0.31-1.04-0.47-1.56
		c-0.28-0.91-0.57-1.82-0.87-2.72c-0.03-0.11-0.07-0.21-0.11-0.32c-0.2-0.63-0.42-1.26-0.64-1.89c-0.56-1.6-1.14-3.18-1.75-4.74
		c-0.19-0.49-0.38-0.97-0.58-1.45c-0.17-0.44-0.35-0.88-0.53-1.31c-0.3-0.73-0.61-1.46-0.92-2.18c-0.28-0.64-0.56-1.27-0.84-1.9
		c-0.27-0.61-0.55-1.22-0.84-1.82c-0.34-0.74-0.69-1.47-1.05-2.19c-1.6-3.28-3.33-6.49-5.18-9.62c-0.28-0.49-0.57-0.98-0.87-1.46
		c-0.95-1.58-1.93-3.14-2.95-4.67c-0.22-0.34-0.45-0.68-0.67-1.01c-1.66-2.49-3.4-4.92-5.23-7.31c-0.4-0.53-0.81-1.06-1.22-1.58
		c-1.23-1.58-2.49-3.13-3.8-4.67c-0.53-0.62-1.06-1.24-1.6-1.86c-1.65-1.9-3.36-3.76-5.13-5.59c-0.37-0.4-0.75-0.79-1.14-1.18
		c-0.35-0.36-0.7-0.72-1.06-1.07c-0.16-0.17-0.33-0.33-0.49-0.48c-0.12-0.12-0.24-0.24-0.35-0.36c-0.19-0.19-0.37-0.37-0.56-0.55
		c-0.26-0.27-0.53-0.54-0.79-0.78c-0.63-0.61-1.26-1.21-1.9-1.81c-1.41-1.32-2.84-2.61-4.29-3.87c-0.61-0.52-1.22-1.05-1.84-1.56
		c-0.69-0.58-1.39-1.16-2.09-1.72c-1.4-1.13-2.83-2.24-4.27-3.3c-0.54-0.41-1.09-0.81-1.64-1.2c-1.48-1.08-2.98-2.11-4.5-3.12
		c-0.74-0.49-1.49-0.98-2.25-1.45c-0.85-0.54-1.71-1.07-2.58-1.6c-0.4-0.24-0.81-0.48-1.22-0.72c-0.41-0.24-0.82-0.48-1.23-0.71
		c-1.88-1.08-3.79-2.12-5.73-3.1c-0.6-0.31-1.2-0.61-1.81-0.91c-2.5-1.23-5.05-2.38-7.65-3.46c-0.5-0.21-1-0.41-1.51-0.62
		c-0.92-0.37-1.84-0.73-2.77-1.08c-0.01,0-0.01-0.01-0.02-0.01c-0.92-0.34-1.85-0.68-2.78-1c-0.46-0.16-0.92-0.32-1.39-0.48
		c-0.83-0.28-1.67-0.56-2.51-0.82c-0.84-0.27-1.69-0.53-2.54-0.78c-0.85-0.26-1.7-0.5-2.56-0.74c-0.85-0.24-1.71-0.47-2.58-0.69
		c-11.68-3-23.44-4.75-35.31-4.6c10.85,0.16,21.62,1.86,32.31,4.6c22.73,5.83,42.67,16.9,59.76,32.94c1,0.94,1.99,1.89,2.96,2.85
		c18.9,18.61,32.47,40.6,39.51,66.48c3.19,11.71,3.38,23.79,3.21,35.84c-0.34,23.37-5.07,45.79-15.09,66.98
		c-0.06,0.12-0.11,0.24-0.17,0.35c-0.03,0.07-0.07,0.14-0.11,0.21c-1.56,3.24-3.39,6.35-5.16,9.5c0.17,1.12,0.35,2.31,0.57,3.63
		c0.75-0.99,1.24-1.51,1.57-2.11c2.13-3.85,4.43-7.62,6.3-11.58c10.02-21.19,14.75-43.61,15.09-66.98
		C380.4,148.89,380.21,136.81,377.02,125.1z M310.6,130.79c-0.01-0.16-0.01-0.32,0.01-0.48c-0.62-0.32-1.28-0.6-1.96-0.86
		c-0.29-0.11-0.59-0.21-0.89-0.31c-0.07,0.69-0.2,1.18-0.16,1.65c0.72,8.39-1.27,16.17-4.86,23.57c-0.32,0.67-0.65,1.34-1,2
		c-6.86,13.03-16.88,23.37-28.13,32.6c-3.49,2.87-7.14,5.54-11.01,8.44c0.21,0.57,0.41,1.16,0.63,1.79
		c4.75-3.62,9.18-6.78,13.38-10.23c11.25-9.23,21.27-19.57,28.13-32.6C308.95,148.36,311.38,139.94,310.6,130.79z M188.45,126.92
		c-10.72,3.09-20.48,7.77-28.9,15.14c-7,6.12-12.39,13.27-16.52,21.2c-0.12,0.23-0.23,0.45-0.34,0.68
		c-2.34,4.55-4.25,9.37-5.82,14.39c-1.04,3.31-1.75,6.72-2.58,10.32c-0.07,0.28-0.13,0.56-0.2,0.84c0.88,0.48,1.77,0.94,2.67,1.4
		c1.08-4.43,1.86-8.57,3.11-12.56c4.39-14.05,11.48-26.47,22.68-36.27c8.42-7.37,18.18-12.05,28.9-15.14
		c3.23-0.93,6.39-1.48,9.49-1.6C196.89,125.13,192.74,125.68,188.45,126.92z M150.29,32.97c8.01,0.06,16.04,0.84,24.09,2.17
		c0.69,0.12,1.5,0.08,2.22-0.12C167.8,33.6,159.02,32.84,150.29,32.97z M106.14,157.27c-0.16-0.03-0.31-0.06-0.48-0.08
		c-0.01-0.01-0.03-0.01-0.04-0.01c-0.25,0.53-0.5,1.06-0.76,1.59c-1.12,2.32-2.27,4.62-3.23,7.01c-3.43,8.52-5.4,17.41-6.75,26.48
		c-2.27,15.23-2.56,30.52-1.87,45.85c0.06,1.4,0.15,2.8,0.21,4.21c0.34,0.72,0.68,1.44,1.02,2.15c0.03,0.05,0.05,0.08,0.08,0.13
		v0.03c0,0,0,0,0,0.01c0.31,0.66,0.63,1.31,0.95,1.97c0.3,0.61,0.67,1.19,1,1.78c0.16-3.52-0.11-6.9-0.26-10.28
		c-0.69-15.33-0.4-30.62,1.87-45.85c1.35-9.07,3.32-17.96,6.75-26.48c0.68-1.69,1.45-3.33,2.24-4.97
		C106.58,159.66,106.34,158.49,106.14,157.27z M87.28,70.07c-4.55,1-9.03,2.3-13.54,3.48c-0.13,0.24-0.26,0.48-0.4,0.72
		c1.12-0.2,1.69-0.27,2.25-0.42c4.9-1.26,9.75-2.7,14.69-3.78c2.25-0.48,4.52-0.81,6.8-0.9C93.8,69.01,90.51,69.37,87.28,70.07z"/>
	<path class="st0" d="M380.23,160.94c-0.34,23.37-5.07,45.79-15.09,66.98c-1.87,3.96-4.17,7.73-6.3,11.58
		c-0.33,0.6-0.82,1.12-1.57,2.11c-0.22-1.32-0.4-2.51-0.57-3.63c-0.18-1.11-0.36-2.15-0.57-3.19c-2.46-12.23-4.72-24.51-7.52-36.67
		c-3.39-14.75-7.99-29.15-14.6-42.82c-3.85-7.96-8.31-15.54-15.14-21.41c-2.35-2.02-4.89-3.7-8.11-4.75
		c-0.05,0.46-0.12,0.83-0.15,1.17c-0.02,0.16-0.02,0.32-0.01,0.48c0.78,9.15-1.65,17.57-5.86,25.57
		c-6.86,13.03-16.88,23.37-28.13,32.6c-4.2,3.45-8.63,6.61-13.38,10.23c-0.22-0.63-0.42-1.22-0.63-1.79
		c-0.66-1.92-1.24-3.58-1.83-5.23c-4.94-13.99-11.05-27.43-19.3-39.8c-5.61-8.42-12.09-16.07-20.74-21.58
		c-6.32-4.02-12.89-5.77-19.79-5.47c-3.1,0.12-6.26,0.67-9.49,1.6c-10.72,3.09-20.48,7.77-28.9,15.14
		c-11.2,9.8-18.29,22.22-22.68,36.27c-1.25,3.99-2.03,8.13-3.11,12.56c-0.9-0.46-1.79-0.92-2.67-1.4
		c-12.88-7.06-22.39-16.72-24.95-32.22c-0.17-0.03-0.34-0.06-0.52-0.09c-0.57,1.21-1.16,2.42-1.75,3.63
		c-0.79,1.64-1.56,3.28-2.24,4.97c-3.43,8.52-5.4,17.41-6.75,26.48c-2.27,15.23-2.56,30.52-1.87,45.85
		c0.15,3.38,0.42,6.76,0.26,10.28c-0.33-0.59-0.7-1.17-1-1.78c-0.69-1.43-1.38-2.85-2.05-4.29c-5.76-12.18-10.97-24.59-15.32-37.35
		c-4.16-12.19-7.53-24.6-9.6-37.35c-1.92-11.82-2.71-23.67-1.39-35.56c2.34-20.99,10.42-39.03,28-51.77
		c3.53-2.56,7.62-4.34,11.48-6.44c0.84-0.46,1.77-0.78,2.82-1.23c-1.17-1.99-2.99-2.54-4.84-2.91c-2.43-0.49-4.86-0.65-7.29-0.54
		c-2.28,0.09-4.55,0.42-6.8,0.9c-4.94,1.08-9.79,2.52-14.69,3.78c-0.56,0.15-1.13,0.22-2.25,0.42c0.14-0.24,0.27-0.48,0.4-0.72
		c0.95-1.73,1.74-3.21,2.62-4.64c9.9-15.95,24.29-25.94,42.05-31.23c10.54-3.14,21.18-4.58,31.88-4.71
		c8.73-0.13,17.51,0.63,26.31,2.05c0.26,0.03,0.52,0.08,0.78,0.12c1,0.17,2.27,0.01,3.13-0.49c12.84-7.4,26.61-12.1,41.16-14.75
		c5.97-1.08,11.9-1.62,17.81-1.67c11.87-0.15,23.63,1.6,35.31,4.6c22.73,5.83,42.67,16.9,59.76,32.94
		c20.45,19.21,35.07,42.12,42.47,69.33C380.21,136.81,380.4,148.89,380.23,160.94z"/>
	<path class="st0" d="M343.32,244.83c-2.67-11.04-8.38-20.51-16-27.76c-14.17-13.47-34.95-19.23-55.1-13.01
		c-16.52,5.09-28.39,15.79-35.36,31.72c-1.06,2.43-1.91,4.97-2.86,7.45c-10.72-4.29-10.72-4.29-21.31-0.39
		c-0.31-0.82-0.6-1.62-0.89-2.41c-0.54-1.48-1.07-2.93-1.66-4.34c-3.03-7.34-7.53-13.73-13.04-18.95
		c-14.57-13.81-36.17-19.45-56.08-12.8c-17.38,5.8-29.42,17.41-35.76,34.66c-4.92,13.4-4.72,26.95,0.79,40.04
		c3,7.12,6.88,13.2,11.63,18.22c8.22,8.72,19.02,14.24,32.24,16.42c14.46,2.39,28.11-0.76,40.11-9.22
		c16.45-11.59,24.71-27.63,24.61-47.88c-0.01-1.22,0.46-2.61,1.15-3.62c2.27-3.29,6.76-4.48,10.97-3.12
		c0.86,0.27,1.61,0.61,2.26,1.04c2.17,1.39,3.22,3.64,3.18,7.07c-0.09,7.69,1.48,15.01,4.48,22.05c2.74,6.43,6.54,12.1,11.12,16.88
		c15.02,15.75,38.42,21.92,59.98,14.1C334.7,301.2,350.04,272.64,343.32,244.83z M117.1,281.48c-0.16-0.22-0.31-0.46-0.45-0.69
		c-0.2-0.31-0.39-0.63-0.58-0.95c-0.96-1.59-1.82-3.24-2.58-4.94c-0.3-0.68-0.59-1.37-0.86-2.06c-0.53-1.35-1-2.72-1.39-4.12
		c-0.05-0.17-0.1-0.34-0.14-0.52c-0.08-0.24-0.14-0.49-0.2-0.73c-0.08-0.31-0.16-0.61-0.22-0.92c-0.53-2.22-0.89-4.49-1.07-6.81
		c-0.03-0.41-0.06-0.82-0.08-1.23c-0.01-0.04-0.01-0.08-0.01-0.12c-0.04-0.78-0.06-1.56-0.06-2.35v-0.66
		c0.36-25.52,21.19-46.25,46.91-46.17c0.41,0,0.81,0.01,1.21,0.02c0.31,0.01,0.62,0.02,0.92,0.04c0.25,0,0.5,0.02,0.75,0.04
		c0.64,0.04,1.29,0.09,1.93,0.15c0.99,0.11,1.98,0.24,2.95,0.41c0.28,0.04,0.56,0.1,0.85,0.15c0.79,0.15,1.58,0.31,2.36,0.5
		c0.39,0.1,0.78,0.2,1.17,0.3c0.31,0.08,0.61,0.16,0.91,0.25c0.47,0.14,0.93,0.28,1.38,0.43c0.33,0.11,0.66,0.21,0.99,0.33
		c0.42,0.15,0.84,0.3,1.25,0.46c0.36,0.14,0.72,0.28,1.08,0.43c0.36,0.14,0.71,0.3,1.06,0.45c0.52,0.23,1.03,0.46,1.53,0.7
		c0.03,0.02,0.07,0.03,0.1,0.05c0.53,0.26,1.07,0.54,1.59,0.82c0.24,0.12,0.48,0.26,0.72,0.39c0.09,0.05,0.18,0.1,0.26,0.15
		c0.42,0.23,0.83,0.47,1.24,0.72c1.16,0.71,2.29,1.46,3.37,2.26c0.37,0.27,0.73,0.54,1.08,0.82c0.42,0.33,0.84,0.66,1.24,1
		c0.24,0.2,0.48,0.41,0.72,0.62c0.61,0.52,1.2,1.06,1.77,1.62c0.23,0.22,0.46,0.45,0.69,0.68c0.3,0.29,0.59,0.59,0.88,0.9
		c-0.16-0.15-0.33-0.3-0.5-0.46c0.17,0.16,0.34,0.31,0.5,0.47c0.01,0.01,0.01,0.01,0.01,0.01c0.21,0.19,0.42,0.39,0.62,0.6
		c0.17,0.16,0.33,0.32,0.49,0.48c1.23,1.23,2.4,2.54,3.48,3.91c0.29,0.36,0.58,0.74,0.86,1.12c1.87,2.51,3.5,5.21,4.84,8.07
		c0.17,0.36,0.33,0.72,0.49,1.08c0.49,1.12,0.94,2.25,1.33,3.4c0.13,0.35,0.25,0.7,0.36,1.06c0.12,0.35,0.23,0.69,0.32,1.04
		c0.13,0.42,0.25,0.85,0.36,1.27c0.11,0.39,0.21,0.78,0.3,1.18c0.08,0.35,0.17,0.7,0.24,1.06c0.1,0.44,0.19,0.88,0.26,1.32
		c0.08,0.4,0.15,0.8,0.21,1.2c0.05,0.28,0.09,0.55,0.12,0.83c0.15,1.01,0.26,2.03,0.33,3.06c0.03,0.26,0.04,0.53,0.06,0.8
		c0,0.08,0.01,0.16,0.01,0.24c0.02,0.31,0.03,0.63,0.04,0.95c0.02,0.52,0.03,1.04,0.03,1.57c0.01,25.49-21.44,47.36-48.12,46.64
		c-0.39-0.01-0.78-0.03-1.16-0.05c-0.1,0-0.2-0.01-0.3-0.02c-0.31-0.01-0.63-0.03-0.94-0.06c-0.37-0.03-0.73-0.06-1.1-0.1
		c-0.38-0.04-0.77-0.08-1.15-0.13c-2.73-0.35-5.39-0.94-7.96-1.75c-0.28-0.08-0.55-0.17-0.82-0.27c-0.17-0.05-0.33-0.11-0.5-0.17
		c-0.29-0.1-0.57-0.2-0.86-0.31c-1.51-0.55-2.98-1.19-4.41-1.89c-0.32-0.16-0.64-0.31-0.94-0.48c-0.34-0.17-0.68-0.35-1.01-0.54
		c-0.5-0.27-1-0.56-1.48-0.85c-0.01,0-0.02-0.01-0.02-0.01c-0.49-0.3-0.96-0.59-1.43-0.9c-0.32-0.21-0.63-0.42-0.94-0.63
		c-0.29-0.2-0.57-0.39-0.84-0.59c-0.28-0.2-0.55-0.41-0.83-0.61c-0.36-0.27-0.72-0.55-1.08-0.84c-0.22-0.16-0.42-0.33-0.62-0.5
		c-0.38-0.3-0.75-0.62-1.11-0.94c-0.29-0.25-0.57-0.5-0.84-0.76c-0.28-0.26-0.56-0.52-0.83-0.78c-0.27-0.26-0.54-0.53-0.8-0.79
		c-0.08-0.07-0.15-0.15-0.22-0.22c-0.14-0.15-0.29-0.3-0.42-0.45c-0.05-0.05-0.1-0.1-0.15-0.15c-0.07-0.06-0.13-0.12-0.2-0.2
		c-0.22-0.19-0.43-0.39-0.64-0.61c-0.57-0.55-1.11-1.12-1.63-1.69c-0.43-0.47-0.85-0.95-1.26-1.44c-0.41-0.48-0.81-0.98-1.2-1.48
		s-0.77-1.02-1.14-1.53C117.81,282.54,117.45,282.01,117.1,281.48z M239.7,255.89c0.03-25.81,20.97-46.69,46.82-46.68
		c13.31-0.16,25.49,5.55,34.09,14.7c9.1,8.59,14.83,20.78,14.76,34.15c-0.14,25.9-21.02,46.74-47.02,46.72
		c-13.35-0.01-25.42-5.69-33.93-14.75C245.35,281.48,239.68,269.33,239.7,255.89z"/>
	<path d="M187.43,180.77c6.54,7.13,12.84,14.01,19.08,20.83c-0.13,0.33-0.15,0.48-0.22,0.57c-4.16,4.61-4.17,4.61-8.31,0.12
		c-6.85-7.43-13.69-14.88-20.52-22.32c-0.39-0.43-0.73-0.91-1.33-1.65c6.73-2.98,13.28-5.88,20.16-8.93
		c-6.54-7.28-12.88-14.33-19.37-21.54c1.47-1.33,2.77-2.61,4.2-3.72c0.33-0.26,1.35-0.18,1.63,0.12
		c8.12,8.95,16.18,17.95,24.23,26.94c0.12,0.13,0.12,0.36,0.24,0.78C200.73,174.85,194.24,177.74,187.43,180.77z"/>
	<path class="st1" d="M190.37,223.9C190.37,223.91,190.37,223.91,190.37,223.9c-0.16-0.15-0.33-0.3-0.5-0.46
		C190.04,223.6,190.21,223.75,190.37,223.9z"/>
	<path class="st0" d="M205.13,258.16c0.01,25.49-21.44,47.36-48.12,46.64c-0.39-0.01-0.78-0.03-1.16-0.05c-0.1,0-0.2-0.01-0.3-0.02
		c-0.31-0.01-0.63-0.03-0.94-0.06c-0.37-0.03-0.73-0.06-1.1-0.1c-0.38-0.04-0.77-0.08-1.15-0.13c-2.73-0.35-5.39-0.94-7.96-1.75
		c-0.28-0.08-0.55-0.17-0.82-0.27c-0.17-0.05-0.33-0.11-0.5-0.17c-0.29-0.1-0.57-0.2-0.86-0.31c-1.51-0.55-2.98-1.19-4.41-1.89
		c-0.32-0.16-0.64-0.31-0.94-0.48c-0.34-0.17-0.68-0.35-1.01-0.54c-0.5-0.27-1-0.56-1.48-0.85c-0.01,0-0.02-0.01-0.02-0.01
		c-0.49-0.3-0.96-0.59-1.43-0.9c-0.32-0.21-0.63-0.42-0.94-0.63c-0.29-0.2-0.57-0.39-0.84-0.59c-0.28-0.2-0.55-0.41-0.83-0.61
		c-0.36-0.27-0.72-0.55-1.08-0.84c-0.22-0.16-0.42-0.33-0.62-0.5c-0.38-0.3-0.75-0.62-1.11-0.94c-0.29-0.25-0.57-0.5-0.84-0.76
		c-0.28-0.26-0.56-0.52-0.83-0.78c-0.27-0.26-0.54-0.53-0.8-0.79c-0.08-0.07-0.15-0.15-0.22-0.22c-0.19-0.2-0.39-0.4-0.57-0.6
		c0.05,0.05,0.1,0.1,0.15,0.15c0.21,0.19,0.41,0.38,0.62,0.56c0.26,0.23,0.52,0.46,0.78,0.69c0.29,0.25,0.58,0.5,0.88,0.74
		c0.5,0.42,1.03,0.83,1.56,1.23c0.28,0.21,0.56,0.42,0.84,0.62c0.29,0.21,0.57,0.41,0.86,0.61s0.58,0.39,0.87,0.58
		s0.59,0.38,0.89,0.57c0.29,0.18,0.59,0.36,0.89,0.54c0.3,0.18,0.6,0.36,0.91,0.53c0.61,0.34,1.22,0.67,1.85,0.99
		c0.01,0.01,0.01,0,0.01,0c0.62,0.32,1.26,0.62,1.9,0.91c0.32,0.15,0.64,0.29,0.97,0.42c0.33,0.14,0.65,0.27,0.98,0.4
		c0.33,0.13,0.66,0.26,0.99,0.38c0.33,0.13,0.67,0.25,1,0.36c0.7,0.25,1.4,0.47,2.11,0.67c0.32,0.1,0.65,0.19,0.97,0.28
		c0.04,0.01,0.08,0.02,0.13,0.03c0.35,0.09,0.69,0.18,1.04,0.26c0.26,0.06,0.52,0.13,0.78,0.18c0.06,0.02,0.11,0.03,0.17,0.04
		c0.5,0.11,1,0.21,1.5,0.3c0.54,0.1,1.07,0.19,1.62,0.27c0.52,0.08,1.06,0.15,1.59,0.2c0.56,0.07,1.12,0.13,1.69,0.17
		c0.73,0.05,1.47,0.09,2.21,0.11c26.68,0.72,48.13-21.15,48.12-46.64c0-0.69-0.02-1.38-0.05-2.06c-0.03-0.86-0.09-1.72-0.18-2.57
		c-0.02-0.25-0.05-0.51-0.08-0.76c-0.18-1.66-0.46-3.3-0.82-4.92c-0.06-0.28-0.13-0.58-0.2-0.86c-0.04-0.18-0.09-0.37-0.14-0.56
		c-0.09-0.37-0.19-0.74-0.3-1.11c-0.2-0.74-0.43-1.48-0.68-2.21c-0.12-0.36-0.25-0.72-0.38-1.08c-1.1-3.04-2.51-5.94-4.19-8.65
		c-0.13-0.22-0.27-0.43-0.41-0.64c-0.25-0.39-0.5-0.78-0.77-1.16c-1.01-1.49-2.11-2.91-3.28-4.26c-0.2-0.23-0.41-0.47-0.62-0.69
		c-0.21-0.24-0.43-0.47-0.65-0.71c0.21,0.19,0.42,0.39,0.62,0.6c0.17,0.16,0.33,0.32,0.49,0.48c1.23,1.23,2.4,2.54,3.48,3.91
		c0.29,0.36,0.58,0.74,0.86,1.12c1.87,2.51,3.5,5.21,4.84,8.07c0.17,0.36,0.33,0.72,0.49,1.08c0.49,1.12,0.94,2.25,1.33,3.4
		c0.13,0.35,0.25,0.7,0.36,1.06c0.12,0.35,0.23,0.69,0.32,1.04c0.13,0.42,0.25,0.85,0.36,1.27c0.11,0.39,0.21,0.78,0.3,1.18
		c0.08,0.35,0.17,0.7,0.24,1.06c0.1,0.44,0.19,0.88,0.26,1.32c0.08,0.4,0.15,0.8,0.21,1.2c0.05,0.28,0.09,0.55,0.12,0.83
		c0.15,1.01,0.26,2.03,0.33,3.06c0.03,0.26,0.04,0.53,0.06,0.8c0,0.08,0.01,0.16,0.01,0.24c0.02,0.31,0.03,0.63,0.04,0.95
		C205.12,257.11,205.13,257.63,205.13,258.16z"/>
	<path class="st0" d="M335.37,258.06c-0.14,25.9-21.02,46.74-47.02,46.72c-13.35-0.01-25.42-5.69-33.93-14.75
		c8.35,7.9,19.59,12.74,31.93,12.75c26,0.02,46.88-20.82,47.02-46.72c0.06-12.37-4.83-23.72-12.76-32.15
		C329.71,232.5,335.44,244.69,335.37,258.06z"/>
	<path class="st0" d="M375.02,123.1c-0.42-1.56-0.87-3.11-1.35-4.64c-0.17-0.57-0.35-1.14-0.54-1.71c-0.33-1.04-0.67-2.06-1.03-3.08
		c-0.12-0.33-0.23-0.67-0.35-1.01c-0.11-0.34-0.23-0.67-0.36-1c-0.27-0.74-0.54-1.48-0.83-2.22c-0.12-0.33-0.25-0.66-0.38-0.99
		c-0.06-0.17-0.12-0.33-0.19-0.49c-0.06-0.16-0.13-0.33-0.2-0.49c-0.29-0.74-0.59-1.48-0.9-2.21c-0.03-0.08-0.06-0.15-0.1-0.23
		c-0.3-0.72-0.61-1.43-0.92-2.14c-0.38-0.86-0.77-1.72-1.16-2.57c-0.35-0.76-0.71-1.51-1.08-2.26c-0.08-0.18-0.17-0.37-0.27-0.55
		c-0.31-0.64-0.62-1.27-0.95-1.9c-1.28-2.51-2.63-4.97-4.05-7.38c-0.36-0.62-0.73-1.23-1.1-1.84c-0.22-0.37-0.45-0.74-0.67-1.1
		c-0.42-0.67-0.84-1.34-1.27-2c-0.42-0.66-0.85-1.31-1.28-1.96c-0.06-0.09-0.11-0.17-0.17-0.25c-0.92-1.38-1.87-2.75-2.85-4.11
		c-0.43-0.59-0.86-1.18-1.3-1.77c-0.49-0.67-0.99-1.33-1.5-1.99c-1.06-1.38-2.14-2.74-3.26-4.09c-0.48-0.58-0.96-1.16-1.45-1.74
		c-0.51-0.6-1.02-1.2-1.54-1.79c-0.52-0.6-1.05-1.19-1.58-1.78c-0.8-0.9-1.62-1.78-2.45-2.66c-0.59-0.63-1.19-1.26-1.79-1.88
		c-0.12-0.12-0.24-0.24-0.35-0.36c-0.19-0.19-0.37-0.37-0.56-0.55c-0.26-0.27-0.53-0.54-0.79-0.78c-0.23-0.24-0.45-0.47-0.68-0.7
		c-1.06-1.05-2.13-2.09-3.22-3.11c-17.09-16.04-37.03-27.11-59.76-32.94c-11.68-3-23.44-4.75-35.31-4.6
		c10.85,0.16,21.62,1.86,32.31,4.6c6.7,1.72,13.16,3.89,19.36,6.51c0.01,0,0.01,0.01,0.02,0.01c14.87,6.27,28.33,15.11,40.38,26.42
		c1.69,1.59,3.35,3.21,4.96,4.85c17.86,18.18,30.72,39.52,37.51,64.48c3.19,11.71,3.38,23.79,3.21,35.84
		c-0.34,23.37-5.07,45.79-15.09,66.98c-1.27,2.69-2.73,5.28-4.21,7.88c-0.41,0.73-0.82,1.45-1.23,2.18
		c0.17,1.12,0.35,2.31,0.57,3.63c0.63-0.83,1.08-1.33,1.4-1.83c0.06-0.09,0.12-0.18,0.17-0.28c1.27-2.29,2.59-4.55,3.85-6.84
		c0.4-0.72,0.79-1.45,1.17-2.18c0.04-0.07,0.08-0.14,0.11-0.21c0.41-0.78,0.8-1.56,1.17-2.35c10.02-21.19,14.75-43.61,15.09-66.98
		C378.4,146.89,378.21,134.81,375.02,123.1z M308.73,131.35c-0.01-0.31-0.01-0.63-0.03-0.95c-0.01-0.32-0.03-0.63-0.05-0.95
		c-0.01-0.22-0.03-0.44-0.05-0.66c-0.01-0.16-0.01-0.32,0.01-0.48c-0.89-0.45-1.84-0.84-2.85-1.17c-0.07,0.69-0.2,1.18-0.16,1.65
		c0.78,9.15-1.65,17.57-5.86,25.57c-6.86,13.03-16.88,23.37-28.13,32.6c-3.17,2.61-6.48,5.06-9.97,7.66
		c-0.34,0.26-0.69,0.52-1.04,0.78c0.21,0.57,0.41,1.16,0.63,1.79c0.35-0.26,0.69-0.52,1.03-0.78c4.36-3.3,8.46-6.25,12.35-9.45
		c11.25-9.23,21.27-19.57,28.13-32.6c0.23-0.44,0.46-0.88,0.67-1.32c0.22-0.44,0.44-0.88,0.64-1.32c1.4-2.97,2.53-6,3.33-9.1
		c0.06-0.23,0.12-0.45,0.17-0.68c0.09-0.38,0.18-0.75,0.26-1.13c0.1-0.47,0.19-0.94,0.28-1.41c0.26-1.42,0.44-2.85,0.54-4.29
		c0.04-0.48,0.07-0.97,0.08-1.45C308.75,132.89,308.75,132.12,308.73,131.35z M186.45,124.92c-10.72,3.09-20.48,7.77-28.9,15.14
		c-11.2,9.8-18.29,22.22-22.68,36.27c-1.12,3.57-1.86,7.25-2.78,11.16c0.73,0.4,1.46,0.78,2.2,1.16c0.15,0.08,0.31,0.16,0.47,0.24
		c1.08-4.43,1.86-8.57,3.11-12.56c0.2-0.65,0.41-1.3,0.63-1.94c0.14-0.43,0.29-0.86,0.44-1.29c0.19-0.56,0.39-1.11,0.59-1.65
		c0.16-0.44,0.33-0.88,0.5-1.31c0.09-0.26,0.19-0.51,0.3-0.76c0.13-0.34,0.26-0.68,0.4-1.01c0.21-0.52,0.43-1.04,0.66-1.55
		c0.16-0.38,0.33-0.76,0.5-1.14c0.26-0.58,0.52-1.16,0.8-1.74c0.11-0.23,0.22-0.45,0.34-0.68c0.62-1.29,1.28-2.56,1.98-3.81
		c0.17-0.33,0.36-0.65,0.55-0.97c0.05-0.11,0.11-0.21,0.18-0.32c0.2-0.35,0.4-0.71,0.62-1.05c0.01-0.04,0.03-0.07,0.06-0.1
		c0.21-0.35,0.42-0.69,0.63-1.03c1.99-3.2,4.22-6.24,6.73-9.12c0.17-0.21,0.35-0.42,0.55-0.62c0.03-0.05,0.08-0.1,0.13-0.15
		c0.46-0.52,0.93-1.03,1.41-1.53c0.57-0.61,1.17-1.22,1.78-1.82c0.28-0.27,0.56-0.54,0.85-0.81c0.67-0.63,1.35-1.26,2.05-1.87
		c8.42-7.37,18.18-12.05,28.9-15.14c3.23-0.93,6.39-1.48,9.49-1.6C194.89,123.13,190.74,123.68,186.45,124.92z M148.29,30.97
		c8.01,0.06,16.04,0.84,24.09,2.17c0.69,0.12,1.5,0.08,2.22-0.12C165.8,31.6,157.02,30.84,148.29,30.97z M104.86,158.77
		c-0.29-1.14-0.52-2.29-0.72-3.5c-0.17-0.03-0.34-0.06-0.52-0.09c-1.34,2.86-2.81,5.67-3.99,8.6c-3.43,8.52-5.4,17.41-6.75,26.48
		c-2.27,15.23-2.56,30.52-1.87,45.85c0.02,0.55,0.05,1.09,0.09,1.64v0.01c0.04,0.85,0.08,1.7,0.12,2.56
		c0.67,1.44,1.36,2.86,2.05,4.29c0.3,0.61,0.67,1.19,1,1.78c0.02-0.51,0.03-1.03,0.04-1.53c0.01-0.08,0.01-0.15,0.01-0.22
		c0-0.01,0-0.01,0-0.01v-0.03c0.01-1.52-0.04-3.02-0.11-4.51c-0.07-1.33-0.15-2.66-0.2-3.98c-0.69-15.33-0.4-30.62,1.87-45.85
		c1.35-9.07,3.32-17.96,6.75-26.48c0.68-1.69,1.45-3.33,2.24-4.97C104.87,158.8,104.86,158.78,104.86,158.77z M85.28,68.07
		c-3.33,0.73-6.62,1.62-9.91,2.51c-1.21,0.33-2.42,0.65-3.63,0.97c-0.13,0.24-0.26,0.48-0.4,0.72c1.12-0.2,1.69-0.27,2.25-0.42
		l1.26-0.33c1.67-0.44,3.35-0.89,5.02-1.34c0.56-0.15,1.12-0.3,1.68-0.45c2.23-0.6,4.47-1.17,6.73-1.66c2.25-0.48,4.52-0.81,6.8-0.9
		C91.8,67.01,88.51,67.37,85.28,68.07z"/>
	<path class="st0" d="M378.23,158.94c-0.34,23.37-5.07,45.79-15.09,66.98c-1.87,3.96-4.17,7.73-6.3,11.58
		c-0.33,0.6-0.82,1.12-1.57,2.11c-0.22-1.32-0.4-2.51-0.57-3.63c-0.18-1.11-0.36-2.15-0.57-3.19c-2.46-12.23-4.72-24.51-7.52-36.67
		c-3.39-14.75-7.99-29.15-14.6-42.82c-3.85-7.96-8.31-15.54-15.14-21.41c-2.35-2.02-4.89-3.7-8.11-4.75
		c-0.05,0.46-0.12,0.83-0.15,1.17c-0.02,0.16-0.02,0.32-0.01,0.48c0.78,9.15-1.65,17.57-5.86,25.57
		c-6.86,13.03-16.88,23.37-28.13,32.6c-4.2,3.45-8.63,6.61-13.38,10.23c-0.22-0.63-0.42-1.22-0.63-1.79
		c-0.66-1.92-1.24-3.58-1.83-5.23c-4.94-13.99-11.05-27.43-19.3-39.8c-5.61-8.42-12.09-16.07-20.74-21.58
		c-6.32-4.02-12.89-5.77-19.79-5.47c-3.1,0.12-6.26,0.67-9.49,1.6c-10.72,3.09-20.48,7.77-28.9,15.14
		c-11.2,9.8-18.29,22.22-22.68,36.27c-1.25,3.99-2.03,8.13-3.11,12.56c-0.9-0.46-1.79-0.92-2.67-1.4
		c-12.88-7.06-22.39-16.72-24.95-32.22c-0.17-0.03-0.34-0.06-0.52-0.09c-0.57,1.21-1.16,2.42-1.75,3.63
		c-0.79,1.64-1.56,3.28-2.24,4.97c-3.43,8.52-5.4,17.41-6.75,26.48c-2.27,15.23-2.56,30.52-1.87,45.85
		c0.15,3.38,0.42,6.76,0.26,10.28c-0.33-0.59-0.7-1.17-1-1.78c-0.69-1.43-1.38-2.85-2.05-4.29c-5.76-12.18-10.97-24.59-15.32-37.35
		c-4.16-12.19-7.53-24.6-9.6-37.35c-1.92-11.82-2.71-23.67-1.39-35.56c2.34-20.99,10.42-39.03,28-51.77
		c3.53-2.56,7.62-4.34,11.48-6.44c0.84-0.46,1.77-0.78,2.82-1.23c-1.17-1.99-2.99-2.54-4.84-2.91c-2.43-0.49-4.86-0.65-7.29-0.54
		c-2.28,0.09-4.55,0.42-6.8,0.9c-4.94,1.08-9.79,2.52-14.69,3.78c-0.56,0.15-1.13,0.22-2.25,0.42c0.14-0.24,0.27-0.48,0.4-0.72
		c0.95-1.73,1.74-3.21,2.62-4.64c9.9-15.95,24.29-25.94,42.05-31.23c10.54-3.14,21.18-4.58,31.88-4.71
		c8.73-0.13,17.51,0.63,26.31,2.05c0.26,0.03,0.52,0.08,0.78,0.12c1,0.17,2.27,0.01,3.13-0.49c12.84-7.4,26.61-12.1,41.16-14.75
		c5.97-1.08,11.9-1.62,17.81-1.67c11.87-0.15,23.63,1.6,35.31,4.6c22.73,5.83,42.67,16.9,59.76,32.94
		c20.45,19.21,35.07,42.12,42.47,69.33C378.21,134.81,378.4,146.89,378.23,158.94z"/>
	<path class="st0" d="M341.32,242.83c-2.43-10.05-7.38-18.8-14-25.76c-14.16-14.88-35.98-21.53-57.1-15.01
		c-16.52,5.09-28.39,15.79-35.36,31.72c-1.06,2.43-1.91,4.97-2.86,7.45c-10.33-4.13-10.71-4.28-20.2-0.8
		c-0.35,0.13-0.73,0.27-1.11,0.41c-0.88-2.34-1.65-4.58-2.55-6.75c-2.65-6.43-6.43-12.13-11.04-16.95
		c-14.53-15.25-37.23-21.76-58.08-14.8c-17.38,5.8-29.42,17.41-35.76,34.66c-4.92,13.4-4.72,26.95,0.79,40.04
		c3.41,8.1,7.97,14.86,13.63,20.22c7.95,7.57,18.07,12.41,30.24,14.42c14.46,2.39,28.11-0.76,40.11-9.22
		c16.45-11.59,24.71-27.63,24.61-47.88c-0.01-1.22,0.46-2.61,1.15-3.62c2.27-3.29,6.76-4.48,10.97-3.12
		c1.95,0.62,3.37,1.6,4.26,3.04c0.82,1.29,1.2,2.96,1.18,5.07c-0.09,7.69,1.48,15.01,4.48,22.05c3.13,7.35,7.65,13.71,13.12,18.88
		c15.06,14.26,37.36,19.58,57.98,12.1C332.7,299.2,348.04,270.64,341.32,242.83z M124.05,289.81c-0.22-0.19-0.43-0.39-0.64-0.61
		c-0.57-0.55-1.11-1.12-1.63-1.69c-0.43-0.47-0.85-0.95-1.26-1.44c-0.41-0.48-0.81-0.98-1.2-1.48s-0.77-1.02-1.14-1.53
		c-0.37-0.52-0.73-1.05-1.08-1.58c-0.16-0.22-0.31-0.46-0.45-0.69c-0.2-0.32-0.4-0.63-0.58-0.95c-0.96-1.59-1.82-3.24-2.58-4.94
		c-0.3-0.68-0.59-1.37-0.86-2.06c-0.53-1.35-1-2.72-1.39-4.12c-0.05-0.17-0.1-0.34-0.14-0.52c-0.08-0.24-0.14-0.49-0.2-0.73
		c-0.08-0.31-0.16-0.61-0.22-0.92c-0.53-2.22-0.89-4.49-1.07-6.81c-0.03-0.41-0.06-0.82-0.08-1.23c-0.01-0.04-0.01-0.08-0.01-0.12
		c-0.04-0.78-0.06-1.56-0.06-2.35v-0.66c0.36-25.52,21.19-46.25,46.91-46.17c0.41,0,0.81,0.01,1.21,0.02c0.31,0,0.61,0.02,0.92,0.04
		c0.25,0,0.5,0.02,0.75,0.04c0.64,0.04,1.29,0.09,1.93,0.15c0.99,0.11,1.98,0.24,2.95,0.41c0.28,0.04,0.56,0.1,0.85,0.15
		c0.79,0.15,1.58,0.31,2.36,0.5c0.39,0.1,0.78,0.2,1.17,0.3c0.31,0.08,0.61,0.16,0.91,0.25c0.47,0.14,0.93,0.28,1.38,0.43
		c0.33,0.11,0.66,0.21,0.99,0.33c0.42,0.15,0.84,0.3,1.25,0.46c0.36,0.14,0.72,0.28,1.08,0.43c0.36,0.14,0.71,0.3,1.06,0.45
		c0.52,0.23,1.03,0.46,1.53,0.7c0.03,0.02,0.07,0.03,0.1,0.05c0.53,0.26,1.07,0.54,1.59,0.82c0.24,0.12,0.48,0.26,0.72,0.39
		c0.09,0.05,0.18,0.1,0.26,0.15c0.42,0.23,0.83,0.47,1.24,0.72c1.16,0.71,2.29,1.46,3.37,2.26c0.37,0.27,0.73,0.54,1.08,0.82
		c0.42,0.33,0.84,0.66,1.24,1c0.24,0.2,0.48,0.41,0.72,0.62c0.61,0.52,1.2,1.06,1.77,1.62c0.23,0.22,0.46,0.45,0.69,0.68
		c0.3,0.29,0.59,0.59,0.88,0.9c0,0.01,0,0.01,0,0.01c0.01,0.01,0.01,0.01,0.01,0.01c0.22,0.24,0.44,0.47,0.65,0.71
		c0.21,0.22,0.42,0.46,0.62,0.69c1.17,1.35,2.27,2.77,3.28,4.26c0.27,0.38,0.52,0.77,0.77,1.16c0.14,0.21,0.28,0.42,0.41,0.64
		c1.68,2.71,3.09,5.61,4.19,8.65c0.14,0.35,0.26,0.71,0.38,1.08c0.25,0.73,0.48,1.47,0.68,2.21c0.11,0.37,0.21,0.74,0.3,1.11
		c0.05,0.19,0.1,0.38,0.14,0.56c0.07,0.28,0.14,0.58,0.2,0.86c0.36,1.62,0.64,3.26,0.82,4.92c0.03,0.25,0.06,0.51,0.08,0.76
		c0.09,0.85,0.15,1.71,0.18,2.57c0.03,0.68,0.05,1.37,0.05,2.06c0.01,25.49-21.44,47.36-48.12,46.64c-0.74-0.02-1.48-0.06-2.21-0.11
		c-0.57-0.04-1.13-0.1-1.69-0.17c-0.53-0.05-1.07-0.12-1.59-0.2c-0.55-0.08-1.08-0.17-1.62-0.27c-0.5-0.09-1-0.19-1.5-0.3
		c-0.06-0.01-0.11-0.02-0.17-0.04c-0.26-0.05-0.52-0.12-0.78-0.18c-0.35-0.08-0.69-0.17-1.04-0.26c-0.05-0.01-0.09-0.02-0.13-0.03
		c-0.32-0.09-0.65-0.18-0.97-0.28c-0.71-0.2-1.41-0.42-2.11-0.67c-0.33-0.11-0.67-0.23-1-0.36c-0.33-0.12-0.66-0.25-0.99-0.38
		c-0.33-0.13-0.65-0.26-0.98-0.4c-0.33-0.13-0.65-0.27-0.97-0.42c-0.64-0.29-1.28-0.59-1.9-0.91c0,0,0,0.01-0.01,0
		c-0.63-0.32-1.24-0.65-1.85-0.99c-0.31-0.17-0.61-0.35-0.91-0.53c-0.3-0.18-0.6-0.36-0.89-0.54c-0.3-0.19-0.6-0.38-0.89-0.57
		s-0.58-0.38-0.87-0.58s-0.57-0.4-0.86-0.61c-0.28-0.2-0.56-0.41-0.84-0.62c-0.53-0.4-1.06-0.81-1.56-1.23
		c-0.3-0.24-0.59-0.49-0.88-0.74c-0.26-0.23-0.52-0.46-0.78-0.69c-0.21-0.18-0.41-0.37-0.62-0.56c-0.05-0.05-0.1-0.1-0.15-0.15
		C124.18,289.95,124.12,289.89,124.05,289.81z M239.7,255.89c0.03-25.81,20.97-46.69,46.82-46.68c13.31-0.16,25.49,5.55,34.09,14.7
		c7.93,8.43,12.82,19.78,12.76,32.15c-0.14,25.9-21.02,46.74-47.02,46.72c-12.34-0.01-23.58-4.85-31.93-12.75
		C245.35,281.48,239.68,269.33,239.7,255.89z"/>
	<path class="st2" d="M185.43,178.77c6.54,7.13,12.84,14.01,19.08,20.83c-0.13,0.33-0.15,0.48-0.22,0.57
		c-4.16,4.61-4.17,4.61-8.31,0.12c-6.85-7.43-13.69-14.88-20.52-22.32c-0.39-0.43-0.73-0.91-1.33-1.65
		c6.73-2.98,13.28-5.88,20.16-8.93c-6.54-7.28-12.88-14.33-19.37-21.54c1.47-1.33,2.77-2.61,4.2-3.72c0.33-0.26,1.35-0.18,1.63,0.12
		c8.12,8.95,16.18,17.95,24.23,26.94c0.12,0.13,0.12,0.36,0.24,0.78C198.73,172.85,192.24,175.74,185.43,178.77z"/>
	<path class="st1" d="M187.3,221.26c0.89,0.69,1.74,1.42,2.57,2.18C189.04,222.69,188.19,221.96,187.3,221.26z"/>
	<path class="st1" d="M190.37,223.9C190.37,223.91,190.37,223.91,190.37,223.9c-0.16-0.15-0.33-0.3-0.5-0.46
		C190.04,223.6,190.21,223.75,190.37,223.9z"/>
	<polygon class="st3" points="175.6,482.85 149.22,484.16 143.54,350.4 169.92,349.1 	"/>
	<path class="st3" d="M289.55,488.97l-21.01,1.68l-8.25-120.3c2.82,9.54,11.28,17.16,22.56,21.1L289.55,488.97z"/>
	<path class="st3" d="M280.84,388.17c6.72,2.34,14.42,3.38,22.53,2.74c24.2-1.94,42.81-18.12,41.57-36.15
		c-1.24-18.02-21.86-31.07-46.06-29.13c-24.2,1.93-42.81,18.12-41.57,36.14c0.12,1.82,0.44,3.6,0.96,5.31"/>
	<polygon class="st3" points="222.5,483.77 196.12,485.07 190.44,351.31 216.82,350.01 	"/>
	<rect x="137.47" y="343.18" class="st4" width="37.66" height="6.37"/>
	<rect x="182.95" y="343.18" class="st4" width="40.55" height="6.37"/>
	<rect x="189.41" y="483.73" class="st2" width="40.96" height="6.95"/>
	<rect x="142.6" y="482.47" class="st2" width="40.96" height="6.95"/>
	<g>
		<polygon class="st4" points="242.55,417.86 125.31,415.19 125.5,405.44 242.74,408.1 		"/>
		<g>
			<polygon class="st4" points="125.62,424.87 122.29,424.85 122.91,396.59 126.24,396.61 			"/>
			<polygon class="st4" points="244.79,425.92 241.46,425.9 242.09,397.64 245.42,397.66 			"/>
		</g>
	</g>
	<rect x="262.53" y="485.42" class="st2" width="34.52" height="7.58"/>
</g>
</svg>
